{"asset":{"version":"2.0","generator":"Blockbench 5.1.4 glTF exporter"},"scenes":[{"nodes":[1,6,8,10],"name":"blockbench_export"}],"scene":0,"nodes":[{"name":"Head"},{"translation":[0,1.5,0],"name":"Head","mesh":0,"children":[0],"skin":0},{"translation":[0,0.75,0],"name":"Body"},{"translation":[0.3125,0.625,0],"name":"Right Arm"},{"translation":[-0.3125,0.625,0],"name":"Left Arm"},{"name":"Waist","children":[2,3,4]},{"translation":[0,0.75,0],"name":"Waist","mesh":1,"children":[5],"skin":1},{"name":"Right Leg"},{"translation":[0.11875,0.75,0],"name":"Right Leg","mesh":2,"children":[7],"skin":2},{"name":"Left Leg"},{"translation":[-0.11875,0.75,0],"name":"Left Leg","mesh":3,"children":[9],"skin":3}],"bufferViews":[{"buffer":0,"byteOffset":0,"byteLength":576,"target":34962,"byteStride":12},{"buffer":0,"byteOffset":576,"byteLength":576,"target":34962,"byteStride":12},{"buffer":0,"byteOffset":1152,"byteLength":384,"target":34962,"byteStride":8},{"buffer":0,"byteOffset":1536,"byteLength":384,"target":34962,"byteStride":8},{"buffer":0,"byteOffset":1920,"byteLength":768,"target":34962,"byteStride":16},{"buffer":0,"byteOffset":2688,"byteLength":72,"target":34963},{"buffer":0,"byteOffset":2760,"byteLength":72,"target":34963},{"buffer":0,"byteOffset":2832,"byteLength":1728,"target":34962,"byteStride":12},{"buffer":0,"byteOffset":4560,"byteLength":1728,"target":34962,"byteStride":12},{"buffer":0,"byteOffset":6288,"byteLength":1152,"target":34962,"byteStride":8},{"buffer":0,"byteOffset":7440,"byteLength":1152,"target":34962,"byteStride":8},{"buffer":0,"byteOffset":8592,"byteLength":2304,"target":34962,"byteStride":16},{"buffer":0,"byteOffset":10896,"byteLength":72,"target":34963},{"buffer":0,"byteOffset":10968,"byteLength":72,"target":34963},{"buffer":0,"byteOffset":11040,"byteLength":72,"target":34963},{"buffer":0,"byteOffset":11112,"byteLength":72,"target":34963},{"buffer":0,"byteOffset":11184,"byteLength":72,"target":34963},{"buffer":0,"byteOffset":11256,"byteLength":72,"target":34963},{"buffer":0,"byteOffset":11328,"byteLength":576,"target":34962,"byteStride":12},{"buffer":0,"byteOffset":11904,"byteLength":576,"target":34962,"byteStride":12},{"buffer":0,"byteOffset":12480,"byteLength":384,"target":34962,"byteStride":8},{"buffer":0,"byteOffset":12864,"byteLength":384,"target":34962,"byteStride":8},{"buffer":0,"byteOffset":13248,"byteLength":768,"target":34962,"byteStride":16},{"buffer":0,"byteOffset":14016,"byteLength":72,"target":34963},{"buffer":0,"byteOffset":14088,"byteLength":72,"target":34963},{"buffer":0,"byteOffset":14160,"byteLength":576,"target":34962,"byteStride":12},{"buffer":0,"byteOffset":14736,"byteLength":576,"target":34962,"byteStride":12},{"buffer":0,"byteOffset":15312,"byteLength":384,"target":34962,"byteStride":8},{"buffer":0,"byteOffset":15696,"byteLength":384,"target":34962,"byteStride":8},{"buffer":0,"byteOffset":16080,"byteLength":768,"target":34962,"byteStride":16},{"buffer":0,"byteOffset":16848,"byteLength":72,"target":34963},{"buffer":0,"byteOffset":16920,"byteLength":72,"target":34963},{"buffer":0,"byteOffset":16992,"byteLength":64},{"buffer":0,"byteOffset":17056,"byteLength":256},{"buffer":0,"byteOffset":17312,"byteLength":64},{"buffer":0,"byteOffset":17376,"byteLength":64},{"buffer":0,"byteOffset":17440,"byteLength":40},{"buffer":0,"byteOffset":17480,"byteLength":160},{"buffer":0,"byteOffset":17640,"byteLength":40},{"buffer":0,"byteOffset":17680,"byteLength":160},{"buffer":0,"byteOffset":17840,"byteLength":40},{"buffer":0,"byteOffset":17880,"byteLength":160},{"buffer":0,"byteOffset":18040,"byteLength":40},{"buffer":0,"byteOffset":18080,"byteLength":160},{"buffer":0,"byteOffset":18240,"byteLength":152},{"buffer":0,"byteOffset":18392,"byteLength":608},{"buffer":0,"byteOffset":19000,"byteLength":152},{"buffer":0,"byteOffset":19152,"byteLength":608},{"buffer":0,"byteOffset":19760,"byteLength":8},{"buffer":0,"byteOffset":19768,"byteLength":32},{"buffer":0,"byteOffset":19800,"byteLength":4},{"buffer":0,"byteOffset":19804,"byteLength":16}],"buffers":[{"byteLength":19820,"uri":"data:application/octet-stream;base64,"}],"accessors":[{"bufferView":0,"componentType":5126,"count":48,"max":[0.28125,0.53125,0.28125],"min":[-0.28125,-0.03125,-0.28125],"type":"VEC3"},{"bufferView":1,"componentType":5126,"count":48,"max":[1,1,1],"min":[-1,-1,-1],"type":"VEC3"},{"bufferView":2,"componentType":5126,"count":48,"max":[0.499755859375,0.249755859375],"min":[0.000244140625,0.000244140625],"type":"VEC2"},{"bufferView":3,"componentType":5123,"count":48,"max":[0,0,0,0],"min":[0,0,0,0],"type":"VEC4"},{"bufferView":4,"componentType":5126,"count":48,"max":[0,1,0,0],"min":[0,1,0,0],"type":"VEC4"},{"bufferView":5,"componentType":5123,"count":36,"max":[23],"min":[0],"type":"SCALAR"},{"bufferView":6,"componentType":5123,"count":36,"max":[47],"min":[24],"type":"SCALAR"},{"bufferView":7,"componentType":5126,"count":144,"max":[0.515625,0.765625,0.140625],"min":[-0.515625,-0.015625,-0.140625],"type":"VEC3"},{"bufferView":8,"componentType":5126,"count":144,"max":[1,1,1],"min":[-1,-1,-1],"type":"VEC3"},{"bufferView":9,"componentType":5126,"count":144,"max":[0.624755859375,0.749755859375],"min":[0.000244140625,0.250244140625],"type":"VEC2"},{"bufferView":10,"componentType":5123,"count":144,"max":[0,3,0,0],"min":[0,1,0,0],"type":"VEC4"},{"bufferView":11,"componentType":5126,"count":144,"max":[0,1,0,0],"min":[0,1,0,0],"type":"VEC4"},{"bufferView":12,"componentType":5123,"count":36,"max":[23],"min":[0],"type":"SCALAR"},{"bufferView":13,"componentType":5123,"count":36,"max":[47],"min":[24],"type":"SCALAR"},{"bufferView":14,"componentType":5123,"count":36,"max":[71],"min":[48],"type":"SCALAR"},{"bufferView":15,"componentType":5123,"count":36,"max":[95],"min":[72],"type":"SCALAR"},{"bufferView":16,"componentType":5123,"count":36,"max":[119],"min":[96],"type":"SCALAR"},{"bufferView":17,"componentType":5123,"count":36,"max":[143],"min":[120],"type":"SCALAR"},{"bufferView":18,"componentType":5126,"count":48,"max":[0.140625,0.015625,0.140625],"min":[-0.140625,-0.765625,-0.140625],"type":"VEC3"},{"bufferView":19,"componentType":5126,"count":48,"max":[1,1,1],"min":[-1,-1,-1],"type":"VEC3"},{"bufferView":20,"componentType":5126,"count":48,"max":[0.749755859375,0.249755859375],"min":[0.500244140625,0.000244140625],"type":"VEC2"},{"bufferView":21,"componentType":5123,"count":48,"max":[0,0,0,0],"min":[0,0,0,0],"type":"VEC4"},{"bufferView":22,"componentType":5126,"count":48,"max":[0,1,0,0],"min":[0,1,0,0],"type":"VEC4"},{"bufferView":23,"componentType":5123,"count":36,"max":[23],"min":[0],"type":"SCALAR"},{"bufferView":24,"componentType":5123,"count":36,"max":[47],"min":[24],"type":"SCALAR"},{"bufferView":25,"componentType":5126,"count":48,"max":[0.140625,0.015625,0.140625],"min":[-0.140625,-0.765625,-0.140625],"type":"VEC3"},{"bufferView":26,"componentType":5126,"count":48,"max":[1,1,1],"min":[-1,-1,-1],"type":"VEC3"},{"bufferView":27,"componentType":5126,"count":48,"max":[0.499755859375,0.749755859375],"min":[0.250244140625,0.500244140625],"type":"VEC2"},{"bufferView":28,"componentType":5123,"count":48,"max":[0,0,0,0],"min":[0,0,0,0],"type":"VEC4"},{"bufferView":29,"componentType":5126,"count":48,"max":[0,1,0,0],"min":[0,1,0,0],"type":"VEC4"},{"bufferView":30,"componentType":5123,"count":36,"max":[23],"min":[0],"type":"SCALAR"},{"bufferView":31,"componentType":5123,"count":36,"max":[47],"min":[24],"type":"SCALAR"},{"bufferView":32,"componentType":5126,"count":1,"max":[1,0,0,0,0,1,0,0,0,0,1,0,0,0,0,1],"min":[1,0,0,0,0,1,0,0,0,0,1,0,0,0,0,1],"type":"MAT4"},{"bufferView":33,"componentType":5126,"count":4,"max":[1,0,0,0,0,1,0,0,0,0,1,0,0.3125,0,0,1],"min":[1,0,0,0,0,1,0,0,0,0,1,0,-0.3125,-0.75,0,1],"type":"MAT4"},{"bufferView":34,"componentType":5126,"count":1,"max":[1,0,0,0,0,1,0,0,0,0,1,0,0,0,0,1],"min":[1,0,0,0,0,1,0,0,0,0,1,0,0,0,0,1],"type":"MAT4"},{"bufferView":35,"componentType":5126,"count":1,"max":[1,0,0,0,0,1,0,0,0,0,1,0,0,0,0,1],"min":[1,0,0,0,0,1,0,0,0,0,1,0,0,0,0,1],"type":"MAT4"},{"bufferView":36,"componentType":5126,"count":10,"max":[0.5],"min":[0],"type":"SCALAR"},{"bufferView":37,"componentType":5126,"count":10,"max":[0.258819043636322,0,0,1],"min":[-0.258819043636322,0,0,0.9659258127212524],"type":"VEC4"},{"bufferView":38,"componentType":5126,"count":10,"max":[0.5],"min":[0],"type":"SCALAR"},{"bufferView":39,"componentType":5126,"count":10,"max":[0.258819043636322,0,0,1],"min":[-0.258819043636322,0,0,0.9659258127212524],"type":"VEC4"},{"bufferView":40,"componentType":5126,"count":10,"max":[0.5],"min":[0],"type":"SCALAR"},{"bufferView":41,"componentType":5126,"count":10,"max":[0.4226182699203491,0,0,1],"min":[-0.4226182699203491,0,0,0.9063078165054321],"type":"VEC4"},{"bufferView":42,"componentType":5126,"count":10,"max":[0.5],"min":[0],"type":"SCALAR"},{"bufferView":43,"componentType":5126,"count":10,"max":[0.4226182699203491,0,0,1],"min":[-0.4226182699203491,0,0,0.9063078165054321],"type":"VEC4"},{"bufferView":44,"componentType":5126,"count":38,"max":[2],"min":[0],"type":"SCALAR"},{"bufferView":45,"componentType":5126,"count":38,"max":[0.08715574443340302,0,0,1],"min":[-0.08715574443340302,0,0,0.9961947202682495],"type":"VEC4"},{"bufferView":46,"componentType":5126,"count":38,"max":[2],"min":[0],"type":"SCALAR"},{"bufferView":47,"componentType":5126,"count":38,"max":[0.08715574443340302,0,0,1],"min":[-0.08715574443340302,0,0,0.9961947202682495],"type":"VEC4"},{"bufferView":48,"componentType":5126,"count":2,"max":[0.1666666716337204],"min":[0],"type":"SCALAR"},{"bufferView":49,"componentType":5126,"count":2,"max":[0,0,0.9537169337272644,0.7071067690849304],"min":[0,0,0.7071067690849304,0.30070579051971436],"type":"VEC4"},{"bufferView":50,"componentType":5126,"count":1,"max":[0],"min":[0],"type":"SCALAR"},{"bufferView":51,"componentType":5126,"count":1,"max":[0,0,-0.7071067690849304,0.7071067690849304],"min":[0,0,-0.7071067690849304,0.7071067690849304],"type":"VEC4"}],"materials":[{"pbrMetallicRoughness":{"metallicFactor":0,"roughnessFactor":1,"baseColorTexture":{"index":0}},"alphaMode":"MASK","alphaCutoff":0.05,"doubleSided":true},{"pbrMetallicRoughness":{"metallicFactor":0,"roughnessFactor":1,"baseColorTexture":{"index":1}},"alphaMode":"MASK","alphaCutoff":0.05,"doubleSided":true}],"textures":[{"sampler":0,"source":0,"name":"player.png"},{"sampler":1,"source":1,"name":"clothes.png"}],"samplers":[{"magFilter":9728,"minFilter":9728,"wrapS":33071,"wrapT":33071},{"magFilter":9728,"minFilter":9728,"wrapS":33071,"wrapT":33071}],"images":[{"mimeType":"image/png","uri":"data:image/png;base64,"},{"mimeType":"image/png","uri":"data:image/png;base64,"}],"meshes":[{"primitives":[{"mode":4,"attributes":{"POSITION":0,"NORMAL":1,"TEXCOORD_0":2,"JOINTS_0":3,"WEIGHTS_0":4},"indices":5,"material":0},{"mode":4,"attributes":{"POSITION":0,"NORMAL":1,"TEXCOORD_0":2,"JOINTS_0":3,"WEIGHTS_0":4},"indices":6,"material":1}]},{"primitives":[{"mode":4,"attributes":{"POSITION":7,"NORMAL":8,"TEXCOORD_0":9,"JOINTS_0":10,"WEIGHTS_0":11},"indices":12,"material":0},{"mode":4,"attributes":{"POSITION":7,"NORMAL":8,"TEXCOORD_0":9,"JOINTS_0":10,"WEIGHTS_0":11},"indices":13,"material":1},{"mode":4,"attributes":{"POSITION":7,"NORMAL":8,"TEXCOORD_0":9,"JOINTS_0":10,"WEIGHTS_0":11},"indices":14,"material":0},{"mode":4,"attributes":{"POSITION":7,"NORMAL":8,"TEXCOORD_0":9,"JOINTS_0":10,"WEIGHTS_0":11},"indices":15,"material":1},{"mode":4,"attributes":{"POSITION":7,"NORMAL":8,"TEXCOORD_0":9,"JOINTS_0":10,"WEIGHTS_0":11},"indices":16,"material":0},{"mode":4,"attributes":{"POSITION":7,"NORMAL":8,"TEXCOORD_0":9,"JOINTS_0":10,"WEIGHTS_0":11},"indices":17,"material":1}]},{"primitives":[{"mode":4,"attributes":{"POSITION":18,"NORMAL":19,"TEXCOORD_0":20,"JOINTS_0":21,"WEIGHTS_0":22},"indices":23,"material":0},{"mode":4,"attributes":{"POSITION":18,"NORMAL":19,"TEXCOORD_0":20,"JOINTS_0":21,"WEIGHTS_0":22},"indices":24,"material":1}]},{"primitives":[{"mode":4,"attributes":{"POSITION":25,"NORMAL":26,"TEXCOORD_0":27,"JOINTS_0":28,"WEIGHTS_0":29},"indices":30,"material":0},{"mode":4,"attributes":{"POSITION":25,"NORMAL":26,"TEXCOORD_0":27,"JOINTS_0":28,"WEIGHTS_0":29},"indices":31,"material":1}]}],"skins":[{"inverseBindMatrices":32,"joints":[0],"skeleton":0},{"inverseBindMatrices":33,"joints":[5,2,3,4],"skeleton":5},{"inverseBindMatrices":34,"joints":[7],"skeleton":7},{"inverseBindMatrices":35,"joints":[9],"skeleton":9}],"animations":[{"name":"walk-loop","samplers":[{"input":36,"output":37,"interpolation":"LINEAR"},{"input":38,"output":39,"interpolation":"LINEAR"},{"input":40,"output":41,"interpolation":"LINEAR"},{"input":42,"output":43,"interpolation":"LINEAR"}],"channels":[{"sampler":0,"target":{"node":3,"path":"rotation"}},{"sampler":1,"target":{"node":4,"path":"rotation"}},{"sampler":2,"target":{"node":7,"path":"rotation"}},{"sampler":3,"target":{"node":9,"path":"rotation"}}]},{"name":"idle-loop","samplers":[{"input":44,"output":45,"interpolation":"LINEAR"},{"input":46,"output":47,"interpolation":"LINEAR"}],"channels":[{"sampler":0,"target":{"node":3,"path":"rotation"}},{"sampler":1,"target":{"node":4,"path":"rotation"}}]},{"name":"win","samplers":[{"input":48,"output":49,"interpolation":"LINEAR"},{"input":50,"output":51,"interpolation":"LINEAR"}],"channels":[{"sampler":0,"target":{"node":3,"path":"rotation"}},{"sampler":1,"target":{"node":4,"path":"rotation"}}]}]}